<svg xmlns="http://www.w3.org/2000/svg" viewBox="0 0 144 144">
  <desc>{"colors":{"backgroundColor":"#2a2a3a","textColor":"#ffffff","graphic1Color":"#ffffff"},"title":{"text":"DRIVE\n"},"border":{"color":"#5a5a6a"},"artworkBounds":{"x":30,"y":13,"width":85,"height":81}}</desc>

    
      <path d="M72.31 14.09C49.53 14.09 31 32.62 31 55.4c0 15.37 8.45 29.38 22.06 36.56l1.08 0.57h36.34l1.08-0.57C105.17 84.78 113.62 70.77 113.62 55.4 113.62 32.62 95.09 14.09 72.31 14.09zM87.98 82.63h-7.65l-1.72-12.26c1.13-0.2 2.28-0.46 3.46-0.77 0.6-0.16 1.1-0.58 1.36-1.15 3.83-8.48 5.36-16.4 4.79-24.91-0.06-0.88-0.66-1.62-1.51-1.87-4.93-1.39-9.64-2.06-14.4-2.06-4.76 0-9.47 0.67-14.4 2.06-0.85 0.24-1.45 0.98-1.51 1.87-0.56 8.51 0.96 16.43 4.79 24.91 0.26 0.57 0.75 0.99 1.36 1.15 1.17 0.31 2.32 0.57 3.46 0.77l-1.72 12.26h-7.65c-6.79-3.91-11.76-10.11-14.14-17.33 4.15-0.59 8.29-1.06 12.44-1.41-1.58-4.73-2.48-9.39-2.74-14.14-4.12 0.94-8.02 2.4-11.28 4.63 0.54-16.85 14.41-30.39 31.39-30.39 16.98 0 30.86 13.55 31.39 30.4-0.32-0.22-0.67-0.44-1.03-0.65-3.12-1.8-6.62-3.04-10.26-3.89-0.26 4.72-1.16 9.34-2.73 14.04 4.15 0.34 8.3 0.81 12.45 1.4C99.74 72.52 94.77 78.72 87.98 82.63z"
        fill="{{graphic1Color}}"/>
    

</svg>
