<svg xmlns="http://www.w3.org/2000/svg" viewBox="0 0 144 144">
  <desc>{"colors":{"backgroundColor":"#2a2a3a","textColor":"#ffffff","graphic1Color":"#ffffff"},"title":{"text":"EXIT\n"},"border":{"color":"#5a5a6a"},"artworkBounds":{"x":38,"y":16,"width":64,"height":83}}</desc>

    
      <path d="M99.01 17H52.1c-1.04 0-1.88 0.84-1.87 1.88v28.05h2.58c-0.78-0.99-1.2-2.2-1.2-3.48 0-1.51 0.59-2.94 1.66-4.01 0.22-0.22 0.46-0.42 0.71-0.6V20.75h43.15v1.35l-19.7 14.3v61.25l19.81-14.38c0.25 0.74 0.94 1.28 1.77 1.28 1.04 0 1.88-0.84 1.88-1.88V18.88C100.89 17.84 100.05 17 99.01 17zM84.87 68.46c-0.89 0-1.62-1.09-1.81-2.56h-2.11v-1.64h2.14c0.22-1.37 0.93-2.38 1.78-2.39 1.03 0 1.86 1.47 1.86 3.3C86.74 66.98 85.9 68.46 84.87 68.46zM53.27 65.74c0.22 0.22 0.46 0.42 0.71 0.6v16.33c0 1.04-0.84 1.88-1.88 1.88-1.04 0-1.88-0.84-1.87-1.88V58.25h2.58C51.07 60.47 51.22 63.7 53.27 65.74zM66.69 50.85c0.75 0.75 0.75 1.95 0 2.7l-9.14 9.15c-0.37 0.37-0.86 0.56-1.35 0.56-0.49 0-0.98-0.19-1.35-0.56-0.75-0.75-0.74-1.96 0-2.7l5.88-5.89H41.68c-1.05 0-1.91-0.85-1.91-1.91 0-1.05 0.85-1.91 1.91-1.91h19.05l-5.88-5.88c-0.74-0.74-0.75-1.95 0-2.7 0.75-0.75 1.96-0.75 2.7 0L66.69 50.85z"
        fill="{{graphic1Color}}"/>
    

</svg>
