<svg xmlns="http://www.w3.org/2000/svg" viewBox="0 0 144 144">
  <desc>{"colors":{"backgroundColor":"#2a2a3a","textColor":"#ffffff","graphic1Color":"#ffffff"},"title":{"text":"TOW\n"},"border":{"color":"#5a5a6a"},"artworkBounds":{"x":31,"y":17,"width":82,"height":65}}</desc>

    
      <path d="M39.95 18.4C39.56 18.41 39.14 18.56 38.85 18.85L37.25 20.45C36.67 21.03 36.63 21.96 37.15 22.6L59.2 49.35 59.2 53.6 75.2 53.6 75.2 48.8C75.2 48.33 75.01 47.91 74.65 47.6L41.05 18.8C40.73 18.53 40.34 18.39 39.95 18.4ZM38.4 29.15L38.4 42.4C38.4 43.28 39.12 44 40 44 40.88 44 41.6 44.72 41.6 45.6 41.6 46.48 40.88 47.2 40 47.2 39.12 47.2 38.4 46.48 38.4 45.6L35.2 45.6C35.2 48.24 37.36 50.4 40 50.4 42.64 50.4 44.8 48.24 44.8 45.6 44.8 43.51 43.46 41.71 41.6 41.05L41.6 33.05ZM83.2 32.8C80.56 32.8 78.4 34.96 78.4 37.6L78.4 72.8 84.95 72.8C85.72 77.33 89.65 80.8 94.4 80.8 99.15 80.8 103.09 77.33 103.85 72.8L107.2 72.8C109.84 72.8 112 70.64 112 68L112 52.6C112 49.38 109.68 46.09 109.4 45.7L102.75 36.8C101.23 34.96 98.84 32.8 96 32.8ZM92.8 42.4L102.95 42.4 106.85 47.6C107.34 48.28 108.51 50.24 108.75 52L92.8 52C92.08 52 91.2 51.12 91.2 50.4L91.2 44C91.2 43.11 92.08 42.4 92.8 42.4ZM32 56.8L32 68C32 70.64 34.16 72.8 36.8 72.8L43.35 72.8C44.12 77.33 48.05 80.8 52.8 80.8 57.55 80.8 61.48 77.33 62.25 72.8L75.2 72.8 75.2 56.8ZM52.8 64.8C56.33 64.8 59.2 67.67 59.2 71.2 59.2 74.73 56.33 77.6 52.8 77.6 49.27 77.6 46.4 74.73 46.4 71.2 46.4 67.67 49.27 64.8 52.8 64.8ZM94.4 64.8C97.93 64.8 100.8 67.67 100.8 71.2 100.8 74.73 97.93 77.6 94.4 77.6 90.87 77.6 88 74.73 88 71.2 88 67.67 90.87 64.8 94.4 64.8Z"
            fill="#ffffff"/>
    

</svg>
