<svg xmlns="http://www.w3.org/2000/svg" viewBox="0 0 144 144">
  <desc>{"colors":{"backgroundColor":"#2a4a5a","textColor":"#ffffff","graphic1Color":"#ffffff"},"title":{"text":"CAMERA\nCHASE"},"border":{"color":"#5a7a8a"},"artworkBounds":{"x":17,"y":24,"width":114,"height":59}}</desc>

    
      <path d="M84.72 64.3h7.67l-0.07-1.94-3.11-0.2c-0.07-0.01-0.12-0.06-0.15-0.12l-0.26-1.01c-0.02-0.06-0.01-0.13 0.03-0.19 0.04-0.05 0.1-0.09 0.17-0.09h2.95c-0.22-2.05-1.53-3.57-3.58-3.87-2.92-0.44-5.18 1.65-4.82 4.17C83.69 62.07 84.2 63.68 84.72 64.3zM90.5 58.66l-0.82-0.06c0 0-0.38-0.49-0.71-0.87C89.3 57.73 90.12 58.06 90.5 58.66z"
        fill="{{graphic1Color}}"/>
      <path d="M60.21 65.05c-4.49 0-8.13 3.64-8.14 8.14 0 4.49 3.64 8.14 8.14 8.13 4.49 0 8.14-3.64 8.13-8.13C68.34 68.69 64.7 65.05 60.21 65.05zM60.21 77.48c-2.37 0-4.29-1.92-4.29-4.29 0-2.37 1.92-4.29 4.29-4.29 2.37 0 4.29 1.92 4.28 4.29C64.49 75.56 62.58 77.48 60.21 77.48z"
        fill="{{graphic1Color}}"/>
      <path d="M60.21 71.85c-0.73 0-1.33 0.6-1.33 1.34 0 0.74 0.6 1.33 1.33 1.33 0.74 0 1.33-0.6 1.33-1.33C61.54 72.45 60.94 71.85 60.21 71.85z"
        fill="{{graphic1Color}}"/>
      <path d="M111.42 63.87c-6.06-0.91-12.27-1.47-17.31-1.82-0.36 1.58-1.52 3.01-2.99 3-1.77 0-7.99 0-7.99 0v-3.55-6.95c-9.67 1.05-15.8 6.13-19.37 10.03 3.38 1.4 5.76 4.73 5.76 8.61 0 0.87-0.12 1.71-0.34 2.51h33.53c-0.22-0.8-0.35-1.64-0.35-2.51C102.36 68.13 106.4 64.01 111.42 63.87z"
        fill="{{graphic1Color}}"/>
      <path d="M60.21 63.87c0.3 0 0.59 0.02 0.87 0.04l1.64-2.26v-5.18H50v13.02l1.36 0.76C52.6 66.55 56.09 63.87 60.21 63.87z"
        fill="{{graphic1Color}}"/>
      <path d="M123.36 72.74v-1.48l2.82-1.47c0 0 0.52-1.72 0.51-2.91-3.31-1.09-7.73-1.73-11.81-2.45 3.57 1.31 6.12 4.74 6.12 8.76 0 0.87-0.12 1.71-0.35 2.51H129.87v-2.96H123.36z"
        fill="{{graphic1Color}}"/>
      <path d="M111.68 65.05c-4.49 0-8.14 3.64-8.14 8.14 0 4.49 3.64 8.14 8.14 8.13 4.49 0 8.14-3.64 8.13-8.13C119.81 68.69 116.17 65.05 111.68 65.05zM111.68 77.48c-2.37 0-4.29-1.92-4.29-4.29 0-2.37 1.92-4.29 4.29-4.29 2.37 0 4.29 1.92 4.29 4.29C115.97 75.56 114.05 77.48 111.68 77.48z"
        fill="{{graphic1Color}}"/>
      <path d="M111.68 71.85c-0.74 0-1.33 0.6-1.33 1.34 0 0.74 0.6 1.33 1.33 1.33 0.74 0 1.33-0.6 1.33-1.33C113.01 72.45 112.41 71.85 111.68 71.85z"
        fill="{{graphic1Color}}"/>
    

    
      <path fill-rule="evenodd" clip-rule="evenodd" d="M25.72 25.72L36.6 30.79C37.5 31.21 37.89 32.28 37.47 33.19L36.45 35.36 39.51 35.28C39.95 35.26 40.25 35.73 40.07 36.13L37.29 42.08C37.11 42.46 36.61 42.54 36.32 42.25L34.23 40.12 33.41 41.89C32.99 42.79 31.92 43.18 31.02 42.76L20.14 37.69C19.24 37.27 18.85 36.19 19.27 35.29L23.33 26.59C23.75 25.69 24.82 25.3 25.72 25.72Z"
        fill="{{graphic1Color}}"/>
    

</svg>
