<svg xmlns="http://www.w3.org/2000/svg" viewBox="0 0 144 144">
  <desc>{"colors":{"backgroundColor":"#2a4a5a","textColor":"#ffffff","graphic1Color":"#ffffff"},"title":{"text":"CAMERA\nCOCKPIT"},"border":{"color":"#5a7a8a"},"artworkBounds":{"x":39,"y":26,"width":66,"height":66}}</desc>

    
      <path d="M94.63 36.37C88.58 30.33 80.55 27 72 27S55.42 30.33 49.37 36.37C43.33 42.42 40 50.45 40 59s3.33 16.58 9.37 22.63C55.42 87.67 63.45 91 72 91s16.58-3.33 22.63-9.37C100.67 75.58 104 67.55 104 59S100.67 42.42 94.63 36.37zM72 34.16c12.6 0 23.03 9.43 24.63 21.59L81.23 54.25c-1.73-3.34-5.21-5.64-9.23-5.63s-7.5 2.29-9.23 5.63L47.37 55.75C48.97 43.58 59.4 34.16 72 34.16zM47.36 62.17l15.22 1.19c0.96 2.07 2.58 3.77 4.59 4.83l1 15.36C57.31 81.86 48.76 73.12 47.36 62.17zM72 62.23c-1.78 0-3.23-1.45-3.23-3.23S70.22 55.77 72 55.77 75.23 57.22 75.23 59 73.78 62.23 72 62.23zM75.83 83.55l1-15.36c2.01-1.06 3.63-2.76 4.59-4.83l15.22-1.19C95.24 73.12 86.69 81.86 75.83 83.55z"
        fill="{{graphic1Color}}"/>
    

</svg>
