<svg xmlns="http://www.w3.org/2000/svg" viewBox="0 0 144 144">
  <desc>{"colors":{"backgroundColor":"#2a4a5a","textColor":"#ffffff","graphic1Color":"#ffffff"},"title":{"text":"CAMERA\nFAR CHASE"},"border":{"color":"#5a7a8a"},"artworkBounds":{"x":17,"y":24,"width":109,"height":59}}</desc>

    
      <path d="M102.36 73.15h3.84l-0.04-0.97-1.55-0.1c-0.03 0-0.06-0.03-0.08-0.06l-0.13-0.5c-0.01-0.03-0.01-0.07 0.01-0.1 0.02-0.03 0.05-0.04 0.09-0.04h1.48c-0.11-1.02-0.76-1.78-1.79-1.94-1.46-0.22-2.59 0.83-2.42 2.08C101.85 72.03 102.1 72.84 102.36 73.15zM105.25 70.33l-0.41-0.03c0 0-0.19-0.24-0.35-0.43C104.65 69.87 105.06 70.03 105.25 70.33z"
        fill="{{graphic1Color}}"/>
      <path d="M90.1 73.53c-2.25 0-4.07 1.82-4.06 4.06 0 2.25 1.82 4.07 4.06 4.07 2.25 0 4.07-1.82 4.07-4.07C94.17 75.35 92.35 73.53 90.1 73.53zM90.1 79.74c-1.18 0-2.14-0.96-2.14-2.15 0-1.18 0.96-2.14 2.14-2.14 1.19 0 2.14 0.96 2.15 2.14C92.25 78.78 91.29 79.74 90.1 79.74z"
        fill="{{graphic1Color}}"/>
      <path d="M90.1 76.93c-0.37 0-0.66 0.3-0.66 0.66 0 0.37 0.3 0.67 0.66 0.67 0.37 0 0.67-0.3 0.67-0.67C90.77 77.23 90.47 76.93 90.1 76.93z"
        fill="{{graphic1Color}}"/>
      <path d="M115.71 72.94c-3.03-0.45-6.13-0.74-8.65-0.92-0.18 0.79-0.76 1.5-1.5 1.51-0.89 0-3.99 0-3.99 0v-1.78-3.48c-4.83 0.53-7.9 3.07-9.69 5.02 1.69 0.7 2.88 2.37 2.88 4.3 0 0.44-0.06 0.86-0.17 1.26h16.76c-0.11-0.4-0.17-0.82-0.17-1.26C111.18 75.07 113.2 73.01 115.71 72.94z"
        fill="{{graphic1Color}}"/>
      <path d="M90.1 72.93c0.15 0 0.29 0.01 0.44 0.02l0.82-1.13v-2.58H85v6.51l0.68 0.38C86.3 74.27 88.05 72.93 90.1 72.93z"
        fill="{{graphic1Color}}"/>
      <path d="M121.68 77.37v-0.74l1.41-0.74c0 0 0.26-0.86 0.26-1.45-1.66-0.55-3.87-0.87-5.91-1.22 1.78 0.65 3.06 2.37 3.06 4.37 0 0.44-0.06 0.86-0.18 1.26H124.94v-1.48H121.68z"
        fill="{{graphic1Color}}"/>
      <path d="M115.84 73.53c-2.25 0-4.07 1.82-4.07 4.06 0 2.25 1.82 4.07 4.07 4.07 2.25 0 4.07-1.82 4.07-4.07C119.91 75.35 118.09 73.53 115.84 73.53zM115.84 79.74c-1.18 0-2.14-0.96-2.15-2.15 0-1.18 0.96-2.14 2.15-2.14 1.18 0 2.14 0.96 2.14 2.14C117.98 78.78 117.02 79.74 115.84 79.74z"
        fill="{{graphic1Color}}"/>
      <path d="M115.84 76.93c-0.37 0-0.67 0.3-0.67 0.66 0 0.37 0.3 0.67 0.67 0.67 0.37 0 0.67-0.3 0.66-0.67C116.5 77.23 116.21 76.93 115.84 76.93z"
        fill="{{graphic1Color}}"/>
    

    
      <path fill-rule="evenodd" clip-rule="evenodd" d="M25.72 25.72L36.6 30.79C37.5 31.21 37.89 32.28 37.47 33.19L36.45 35.36 39.51 35.28C39.95 35.26 40.25 35.73 40.07 36.13L37.29 42.08C37.11 42.46 36.61 42.54 36.32 42.25L34.23 40.12 33.41 41.89C32.99 42.79 31.92 43.18 31.02 42.76L20.14 37.69C19.24 37.27 18.85 36.19 19.27 35.29L23.33 26.59C23.75 25.69 24.82 25.3 25.72 25.72Z"
        fill="{{graphic1Color}}"/>
    

</svg>
