<svg xmlns="http://www.w3.org/2000/svg" viewBox="0 0 144 144">
  <desc>{"colors":{"backgroundColor":"#2a4a5a","textColor":"#ffffff","graphic1Color":"#ffffff"},"title":{"text":"CAMERA\nNOSE"},"border":{"color":"#5a7a8a"},"artworkBounds":{"x":26,"y":57,"width":101,"height":26}}</desc>

    
      <path d="M57.04 67.41h6.65l-0.07-1.67-2.69-0.18c-0.06-0.01-0.11-0.05-0.12-0.1l-0.23-0.88c-0.02-0.05-0.01-0.12 0.02-0.16 0.03-0.05 0.09-0.08 0.15-0.07h2.56c-0.19-1.77-1.32-3.09-3.1-3.36-2.53-0.38-4.49 1.43-4.18 3.61C56.16 65.48 56.6 66.88 57.04 67.41zM62.05 62.53l-0.71-0.05c0 0-0.33-0.42-0.62-0.75C61.01 61.73 61.72 62.01 62.05 62.53z"
        fill="{{graphic1Color}}"/>
      <path d="M35.83 68.06c-3.89 0-7.04 3.15-7.04 7.04 0 3.89 3.15 7.04 7.04 7.04 3.89 0 7.04-3.15 7.04-7.04C42.87 71.22 39.72 68.06 35.83 68.06zM35.83 78.82c-2.05 0-3.71-1.66-3.71-3.72 0-2.05 1.66-3.71 3.71-3.71 2.05 0 3.71 1.66 3.71 3.71C39.54 77.16 37.88 78.82 35.83 78.82z"
        fill="{{graphic1Color}}"/>
      <path d="M35.83 73.95c-0.64 0-1.15 0.52-1.15 1.15 0 0.64 0.52 1.15 1.15 1.16 0.64 0 1.15-0.52 1.16-1.16C36.99 74.47 36.47 73.95 35.83 73.95z"
        fill="{{graphic1Color}}"/>
      <path d="M80.15 67.05c-5.25-0.79-10.61-1.28-14.98-1.59-0.31 1.37-1.32 2.6-2.59 2.6-1.54 0-6.91 0-6.91 0v-3.07-6.01c-8.37 0.91-13.67 5.3-16.76 8.67 2.92 1.21 4.99 4.1 4.99 7.45 0 0.75-0.11 1.48-0.3 2.18h29.01c-0.19-0.69-0.3-1.42-0.3-2.18C72.31 70.73 75.81 67.16 80.15 67.05z"
        fill="{{graphic1Color}}"/>
      <path d="M35.83 67.04c0.26 0 0.51 0.01 0.76 0.04l1.42-1.96v-4.48H27v11.26l1.18 0.67C29.25 69.36 32.27 67.04 35.83 67.04z"
        fill="{{graphic1Color}}"/>
      <path d="M90.49 74.72v-1.28l2.43-1.28c0 0 0.45-1.49 0.45-2.51-2.86-0.95-6.69-1.5-10.22-2.12 3.09 1.13 5.29 4.1 5.29 7.57 0 0.75-0.11 1.48-0.3 2.18H96.12v-2.56H90.49z"
        fill="{{graphic1Color}}"/>
      <path d="M80.38 68.06c-3.89 0-7.04 3.15-7.04 7.04 0 3.89 3.15 7.04 7.04 7.04 3.89 0 7.04-3.15 7.04-7.04C87.42 71.22 84.26 68.06 80.38 68.06zM80.38 78.82c-2.05 0-3.71-1.66-3.72-3.72 0-2.05 1.66-3.71 3.72-3.71 2.05 0 3.71 1.66 3.71 3.71C84.09 77.16 82.43 78.82 80.38 78.82z"
        fill="{{graphic1Color}}"/>
      <path d="M80.38 73.95c-0.64 0-1.15 0.52-1.16 1.15 0 0.64 0.52 1.15 1.16 1.16 0.64 0 1.15-0.52 1.15-1.16C81.53 74.47 81.01 73.95 80.38 73.95z"
        fill="{{graphic1Color}}"/>
    

    
      <path fill-rule="evenodd" clip-rule="evenodd" d="M108.2 59.4H120.2C121.19 59.4 122 60.21 122 61.2V63.6L124.73 62.23C125.13 62.03 125.6 62.32 125.6 62.77V69.33C125.6 69.75 125.18 70.04 124.79 69.9L122 68.85V70.8C122 71.79 121.19 72.6 120.2 72.6H108.2C107.21 72.6 106.4 71.79 106.4 70.8V61.2C106.4 60.21 107.21 59.4 108.2 59.4Z"
        fill="{{graphic1Color}}"/>
    

</svg>
