<svg xmlns="http://www.w3.org/2000/svg" viewBox="0 0 144 144">
  <desc>{"colors":{"backgroundColor":"#2a4a5a","textColor":"#ffffff","graphic1Color":"#ffffff"},"title":{"text":"CAMERA\nPIT LANE"},"border":{"color":"#5a7a8a"},"artworkBounds":{"x":19,"y":23,"width":106,"height":62}}</desc>

    <g stroke="{{graphic1Color}}" fill="none">
      <line x1="20" y1="24" x2="124" y2="24" stroke-width="2.5"/>
      <line x1="40" y1="24" x2="40" y2="54" stroke-width="2" opacity="0.5"/>
      <line x1="64" y1="24" x2="64" y2="54" stroke-width="2" opacity="0.5"/>
      <line x1="88" y1="24" x2="88" y2="54" stroke-width="2" opacity="0.5"/>
      <line x1="112" y1="24" x2="112" y2="54" stroke-width="2" opacity="0.5"/>
      <line x1="20" y1="54" x2="124" y2="54" stroke-width="2.5" stroke-dasharray="8,6"/>
      <line x1="20" y1="84" x2="124" y2="84" stroke-width="3"/>
    </g>

    
      <path d="M60.47 44.9h3.2v-5.15c-0.76 0.17-2 0.46-3.2 0.72L60.47 44.9z" fill="{{graphic1Color}}"/>
      <path d="M63.67 31.92h-3.2v4.42c1.19 0.26 2.44 0.55 3.2 0.72V31.92z" fill="{{graphic1Color}}"/>
      <path d="M34.23 31.86h4.91c0.39 0 0.71-0.32 0.71-0.71v-2.41c0-0.39-0.32-0.71-0.71-0.71H34.23c-0.39 0-0.71 0.32-0.71 0.71v2.41C33.52 31.54 33.84 31.86 34.23 31.86z" fill="{{graphic1Color}}"/>
      <path d="M39.14 44.96H34.23c-0.39 0-0.71 0.32-0.71 0.71v2.4c0 0.39 0.32 0.71 0.71 0.71h4.91c0.39 0 0.71-0.32 0.71-0.71v-2.4C39.85 45.28 39.53 44.96 39.14 44.96z" fill="{{graphic1Color}}"/>
      <path d="M53.56 31.76h4.66c0.39 0 0.71-0.32 0.71-0.71V29.15c0-0.39-0.32-0.71-0.71-0.71h-4.66c-0.39 0-0.71 0.32-0.71 0.71v1.9C52.85 31.45 53.17 31.76 53.56 31.76z" fill="{{graphic1Color}}"/>
      <path d="M58.22 45.05h-4.66c-0.39 0-0.71 0.32-0.71 0.71v1.9c0 0.39 0.32 0.71 0.71 0.71h4.66c0.39 0 0.71-0.32 0.71-0.71v-1.9C58.93 45.37 58.61 45.05 58.22 45.05z" fill="{{graphic1Color}}"/>
      <polygon points="33.89,32.92 30,32.92 30,43.89 33.89,43.89" fill="{{graphic1Color}}"/>
      <path d="M64.26 37.71c0 0-4.52-1.05-6.32-1.38-1.8-0.33-6.22-1.12-6.22-1.12s-0.2-0.76-0.31-1.38c-0.19-1.07-1.13-2.13-3.51-2.13-2.38 0-3.2 0-4.52 0-3.45 0-2.88 3.32-4.97 3.32-2.09 0-3.69 0-3.68 0v6.77c0 0 1.6 0 3.68 0 2.09 0 1.52 3.32 4.97 3.33 1.32 0 2.13 0 4.52 0s3.32-1.07 3.51-2.14c0.11-0.62 0.31-1.38 0.31-1.38s4.43-0.78 6.22-1.11c1.8-0.33 6.31-1.39 6.32-1.39 0.33-0.07 0.56-0.36 0.56-0.69C64.82 38.07 64.58 37.78 64.26 37.71zM50.12 40.06c-1.56 0-1.96-0.74-1.96-1.65 0-0.91 0.4-1.65 1.96-1.65 1.56 0 2.83 0.74 2.83 1.65C52.95 39.32 51.68 40.06 50.12 40.06z" fill="{{graphic1Color}}"/>
      <path d="M56.52 35.56v-3.04h-0.75v2.9C56.03 35.47 56.28 35.52 56.52 35.56z" fill="{{graphic1Color}}"/>
      <path d="M55.77 41.39v2.91h0.75v-3.04C56.28 41.3 56.03 41.35 55.77 41.39z" fill="{{graphic1Color}}"/>
      <rect x="36.15" y="32.52" width="0.75" height="2.01" fill="{{graphic1Color}}"/>
      <rect x="36.15" y="42.29" width="0.75" height="2.01" fill="{{graphic1Color}}"/>
    

</svg>
