<svg xmlns="http://www.w3.org/2000/svg" viewBox="0 0 144 144">
  <desc>{"colors":{"backgroundColor":"#2a4a5a","textColor":"#ffffff","graphic1Color":"#ffffff"},"title":{"text":"CAMERA\nRF SUSP"},"border":{"color":"#5a7a8a"},"artworkBounds":{"x":54,"y":27,"width":56,"height":71}}</desc>

    
      <path d="M80.53 28H63.52c-4.51 0-8.17 5.02-8.17 9.53v50.36c0 4.51 3.66 8.17 8.17 8.17h17.01c4.51 0 8.17-3.66 8.17-8.17V37.53C88.7 33.02 85.04 28 80.53 28zM87.27 48.53v16.88l-3.95 0.51v-6.96L87.27 48.53zM85.2 43.59c-1.47 5.64-3.21 12.31-3.21 12.31H62.07l-3.22-12.31C58.85 43.59 71.7 39.22 85.2 43.59zM60.78 59.42v6.5l-3.95-0.51V48.98L60.78 59.42zM56.83 82.9V67.91l3.95 0.49v11.86L56.83 82.9zM59.08 87.16l3.21-4.83h19.93l3.21 4.83H59.08zM83.32 79.81v-11.39l3.95-0.51v14.53L83.32 79.81z"
        fill="{{graphic1Color}}"/>
    

    
      <path fill-rule="evenodd" clip-rule="evenodd" d="M95.4 49.8L95.4 37.8C95.4 36.81 96.21 36 97.2 36L99.6 36 98.23 33.27C98.03 32.87 98.32 32.4 98.77 32.4L105.33 32.4C105.75 32.4 106.04 32.82 105.9 33.21L104.85 36 106.8 36C107.79 36 108.6 36.81 108.6 37.8L108.6 49.8C108.6 50.79 107.79 51.6 106.8 51.6L97.2 51.6C96.21 51.6 95.4 50.79 95.4 49.8Z"
        fill="{{graphic1Color}}"/>
    

</svg>
