<svg xmlns="http://www.w3.org/2000/svg" viewBox="0 0 144 144">
  <desc>{"colors":{"backgroundColor":"#2a4a5a","textColor":"#ffffff","graphic1Color":"#ffffff"},"title":{"text":"CAMERA\nCHOPPER"},"border":{"color":"#5a7a8a"},"artworkBounds":{"x":31,"y":28,"width":83,"height":60}}</desc>

    
      <path d="M109.39 76.27c-1.44 0-2.61 1.17-2.61 2.61 0 1.44-1.17 2.61-2.61 2.61h-4.31v-5.32c2.61-0.34 5.03-1.52 6.93-3.42 2.28-2.28 3.53-5.31 3.51-8.53 0-0.22 0.05-1.09-0.08-1.63-0.88-12.74-11.51-22.86-24.47-22.86h-1.55v-5.22h23.49c1.44 0 2.61-1.17 2.61-2.61 0-1.44-1.17-2.61-2.61-2.61H55.49c-1.44 0-2.61 1.17-2.61 2.61 0 1.44 1.17 2.61 2.61 2.61h23.49v5.22H37.22v-2.61c0-1.44-1.17-2.61-2.61-2.61C33.17 34.51 32 35.68 32 37.12c0 1.72 0 14.09 0 15.66 0 1.44 1.17 2.61 2.61 2.61 1.44 0 2.61-1.17 2.61-2.61v-1.88l24.12 6.03c0 0 0 0 0.01 0 1.16 0.29 1.98 1.33 1.97 2.54 0 7.02 4.32 13.04 10.44 15.55v6.47h-7.83c-1.44 0-2.61 1.17-2.61 2.61s1.17 2.61 2.61 2.61h38.24c4.32 0 7.83-3.51 7.83-7.83C112 77.44 110.83 76.27 109.39 76.27zM84.2 44.95h1.55c9.39 0 17.25 6.76 18.97 15.66H86.81c-1.44 0-2.61-1.17-2.61-2.61V44.95zM94.64 81.49H78.98V76.23c0.38 0.03 0.76 0.04 1.15 0.04h14.51V81.49z"
        fill="#ffffff"/>
    

</svg>
