<svg xmlns="http://www.w3.org/2000/svg" viewBox="0 0 144 144">
  <desc>{"colors":{"backgroundColor":"#2a4a5a","textColor":"#ffffff","graphic1Color":"#ffffff"},"title":{"text":"CAMERA\nGEARBOX"},"border":{"color":"#5a7a8a"},"artworkBounds":{"x":17,"y":57,"width":107,"height":26}}</desc>

    
      <path d="M84.04 67.41h6.65l-0.07-1.67-2.69-0.18c-0.06-0.01-0.11-0.05-0.12-0.1l-0.23-0.88c-0.02-0.05-0.01-0.12 0.02-0.16 0.03-0.05 0.09-0.08 0.15-0.07h2.56c-0.19-1.77-1.32-3.09-3.1-3.36-2.53-0.38-4.49 1.43-4.18 3.61C83.16 65.48 83.6 66.88 84.04 67.41zM89.05 62.53l-0.71-0.05c0 0-0.33-0.42-0.62-0.75C88.01 61.73 88.72 62.01 89.05 62.53z"
        fill="#ffffff"/>
      <path d="M62.83 68.06c-3.89 0-7.04 3.15-7.04 7.04 0 3.89 3.15 7.04 7.04 7.04 3.89 0 7.04-3.15 7.04-7.04C69.87 71.22 66.72 68.06 62.83 68.06zM62.83 78.82c-2.05 0-3.71-1.66-3.71-3.72 0-2.05 1.66-3.71 3.71-3.71 2.05 0 3.71 1.66 3.71 3.71C66.54 77.16 64.88 78.82 62.83 78.82z"
        fill="#ffffff"/>
      <path d="M62.83 73.95c-0.64 0-1.15 0.52-1.15 1.15 0 0.64 0.52 1.15 1.15 1.16 0.64 0 1.15-0.52 1.16-1.16C63.99 74.47 63.47 73.95 62.83 73.95z"
        fill="#ffffff"/>
      <path d="M107.15 67.05c-5.25-0.79-10.61-1.28-14.98-1.59-0.31 1.37-1.32 2.6-2.59 2.6-1.54 0-6.91 0-6.91 0v-3.07-6.01c-8.37 0.91-13.67 5.3-16.76 8.67 2.92 1.21 4.99 4.1 4.99 7.45 0 0.75-0.11 1.48-0.3 2.18h29.01c-0.19-0.69-0.3-1.42-0.3-2.18C99.31 70.73 102.81 67.16 107.15 67.05z"
        fill="#ffffff"/>
      <path d="M62.83 67.04c0.26 0 0.51 0.01 0.76 0.04l1.42-1.96v-4.48H54v11.26l1.18 0.67C56.25 69.36 59.27 67.04 62.83 67.04z"
        fill="#ffffff"/>
      <path d="M117.49 74.72v-1.28l2.43-1.28c0 0 0.45-1.49 0.45-2.51-2.86-0.95-6.69-1.5-10.22-2.12 3.09 1.13 5.29 4.1 5.29 7.57 0 0.75-0.11 1.48-0.3 2.18H123.12v-2.56H117.49z"
        fill="#ffffff"/>
      <path d="M107.38 68.06c-3.89 0-7.04 3.15-7.04 7.04 0 3.89 3.15 7.04 7.04 7.04 3.89 0 7.04-3.15 7.04-7.04C114.42 71.22 111.26 68.06 107.38 68.06zM107.38 78.82c-2.05 0-3.71-1.66-3.72-3.72 0-2.05 1.66-3.71 3.72-3.71 2.05 0 3.71 1.66 3.71 3.71C111.09 77.16 109.43 78.82 107.38 78.82z"
        fill="#ffffff"/>
      <path d="M107.38 73.95c-0.64 0-1.15 0.52-1.16 1.15 0 0.64 0.52 1.15 1.16 1.16 0.64 0 1.15-0.52 1.15-1.16C108.53 74.47 108.01 73.95 107.38 73.95z"
        fill="#ffffff"/>
    

    
      <path fill-rule="evenodd" clip-rule="evenodd" d="M35.8 72.6H23.8C22.81 72.6 22 71.79 22 70.8V68.4L19.27 69.77C18.87 69.97 18.4 69.68 18.4 69.23L18.4 62.67C18.4 62.25 18.82 61.96 19.21 62.1L22 63.15V61.2C22 60.21 22.81 59.4 23.8 59.4H35.8C36.79 59.4 37.6 60.21 37.6 61.2V70.8C37.6 71.79 36.79 72.6 35.8 72.6Z"
        fill="#ffffff"/>
    

</svg>
