<svg xmlns="http://www.w3.org/2000/svg" viewBox="0 0 144 144">
  <desc>{"colors":{"backgroundColor":"#2a4a5a","textColor":"#ffffff","graphic1Color":"#ffffff"},"title":{"text":"CAMERA\nREAR CHASE"},"border":{"color":"#5a7a8a"},"artworkBounds":{"x":13,"y":24,"width":114,"height":59}}</desc>

    
      <path d="M48.72 64.3h7.67l-0.07-1.94-3.11-0.2c-0.07-0.01-0.12-0.06-0.15-0.12l-0.26-1.01c-0.02-0.06-0.01-0.13 0.03-0.19 0.04-0.05 0.1-0.09 0.17-0.09h2.95c-0.22-2.05-1.53-3.57-3.58-3.87-2.92-0.44-5.18 1.65-4.82 4.17C47.69 62.07 48.2 63.68 48.72 64.3zM54.5 58.66l-0.82-0.06c0 0-0.38-0.49-0.71-0.87C53.3 57.73 54.12 58.06 54.5 58.66z"
        fill="#ffffff"/>
      <path d="M24.21 65.05c-4.49 0-8.13 3.64-8.14 8.14 0 4.49 3.64 8.14 8.14 8.13 4.49 0 8.14-3.64 8.13-8.13C32.34 68.69 28.7 65.05 24.21 65.05zM24.21 77.48c-2.37 0-4.29-1.92-4.29-4.29 0-2.37 1.92-4.29 4.29-4.29 2.37 0 4.29 1.92 4.28 4.29C28.49 75.56 26.58 77.48 24.21 77.48z"
        fill="#ffffff"/>
      <path d="M24.21 71.85c-0.73 0-1.33 0.6-1.33 1.34 0 0.74 0.6 1.33 1.33 1.33 0.74 0 1.33-0.6 1.33-1.33C25.54 72.45 24.94 71.85 24.21 71.85z"
        fill="#ffffff"/>
      <path d="M75.42 63.87c-6.06-0.91-12.27-1.47-17.31-1.82-0.36 1.58-1.52 3.01-2.99 3-1.77 0-7.99 0-7.99 0v-3.55-6.95c-9.67 1.05-15.8 6.13-19.37 10.03 3.38 1.4 5.76 4.73 5.76 8.61 0 0.87-0.12 1.71-0.34 2.51h33.53c-0.22-0.8-0.35-1.64-0.35-2.51C66.36 68.13 70.4 64.01 75.42 63.87z"
        fill="#ffffff"/>
      <path d="M24.21 63.87c0.3 0 0.59 0.02 0.87 0.04l1.64-2.26v-5.18H14v13.02l1.36 0.76C16.6 66.55 20.09 63.87 24.21 63.87z"
        fill="#ffffff"/>
      <path d="M87.36 72.74v-1.48l2.82-1.47c0 0 0.52-1.72 0.51-2.91-3.31-1.09-7.73-1.73-11.81-2.45 3.57 1.31 6.12 4.74 6.12 8.76 0 0.87-0.12 1.71-0.35 2.51H93.87v-2.96H87.36z"
        fill="#ffffff"/>
      <path d="M75.68 65.05c-4.49 0-8.14 3.64-8.14 8.14 0 4.49 3.64 8.14 8.14 8.13 4.49 0 8.14-3.64 8.13-8.13C83.81 68.69 80.17 65.05 75.68 65.05zM75.68 77.48c-2.37 0-4.29-1.92-4.29-4.29 0-2.37 1.92-4.29 4.29-4.29 2.37 0 4.29 1.92 4.29 4.29C79.97 75.56 78.05 77.48 75.68 77.48z"
        fill="#ffffff"/>
      <path d="M75.68 71.85c-0.74 0-1.33 0.6-1.33 1.34 0 0.74 0.6 1.33 1.33 1.33 0.74 0 1.33-0.6 1.33-1.33C77.01 72.45 76.41 71.85 75.68 71.85z"
        fill="#ffffff"/>
    

    
      <path fill-rule="evenodd" clip-rule="evenodd" d="M123.86 37.69L112.98 42.76C112.08 43.18 111.01 42.79 110.59 41.89L109.58 39.71 107.68 42.1C107.4 42.45 106.85 42.39 106.66 41.98L103.89 36.04C103.71 35.66 103.97 35.22 104.39 35.18L107.36 34.95 106.53 33.19C106.11 32.28 106.5 31.21 107.4 30.79L118.28 25.72C119.18 25.3 120.25 25.69 120.67 26.59L124.73 35.29C125.15 36.19 124.76 37.27 123.86 37.69Z"
        fill="#ffffff"/>
    

</svg>
