<svg xmlns="http://www.w3.org/2000/svg" viewBox="0 0 144 144">
  <desc>{"colors":{"backgroundColor":"#2a4a5a","textColor":"#ffffff","graphic1Color":"#ffffff"},"title":{"text":"CAMERA\nRR SUSP"},"border":{"color":"#5a7a8a"},"artworkBounds":{"x":54,"y":27,"width":56,"height":71}}</desc>

    
      <path d="M80.53 28H63.52c-4.51 0-8.17 5.02-8.17 9.53v50.36c0 4.51 3.66 8.17 8.17 8.17h17.01c4.51 0 8.17-3.66 8.17-8.17V37.53C88.7 33.02 85.04 28 80.53 28zM87.27 48.53v16.88l-3.95 0.51v-6.96L87.27 48.53zM85.2 43.59c-1.47 5.64-3.21 12.31-3.21 12.31H62.07l-3.22-12.31C58.85 43.59 71.7 39.22 85.2 43.59zM60.78 59.42v6.5l-3.95-0.51V48.98L60.78 59.42zM56.83 82.9V67.91l3.95 0.49v11.86L56.83 82.9zM59.08 87.16l3.21-4.83h19.93l3.21 4.83H59.08zM83.32 79.81v-11.39l3.95-0.51v14.53L83.32 79.81z"
        fill="#ffffff"/>
    

    
      <path fill-rule="evenodd" clip-rule="evenodd" d="M108.6 74.2L108.6 86.2C108.6 87.19 107.79 88 106.8 88L104.4 88 105.77 90.73C105.97 91.13 105.68 91.6 105.23 91.6L98.67 91.6C98.25 91.6 97.96 91.18 98.1 90.79L99.15 88 97.2 88C96.21 88 95.4 87.19 95.4 86.2L95.4 74.2C95.4 73.21 96.21 72.4 97.2 72.4L106.8 72.4C107.79 72.4 108.6 73.21 108.6 74.2Z"
        fill="#ffffff"/>
    

</svg>
