<svg xmlns="http://www.w3.org/2000/svg" viewBox="0 0 144 144">
  <desc>{"colors":{"backgroundColor":"#3a4a5a","textColor":"#ffffff","graphic1Color":"#ed2224"}}</desc>
  <g filter="url(#activity-state)">
    <rect x="0" y="0" width="144" height="144" fill="{{backgroundColor}}"/>

    <!-- Icon content area: damage/crash -->
    <g transform="translate(0, -8)">
      <path fill="{{graphic1Color}}" d="M43.61,50.63l-1.99,7.45c-.48,1.81-.58,3.68-.39,5.52l-5.65,4.65c-1.06.87-2.62-.07-2.35-1.41l2.48-12.32c.17-.84-.43-1.65-1.28-1.73l-12.51-1.21c-1.36-.13-1.8-1.9-.66-2.66l10.46-6.95c.72-.48.86-1.47.32-2.13l-7.98-9.7c-.87-1.06.07-2.62,1.41-2.35l12.32,2.48c.84.17,1.65-.43,1.73-1.28l1.21-12.51c.13-1.36,1.9-1.8,2.66-.66l6.95,10.46c.48.72,1.47.86,2.13.32l9.7-7.98c1.06-.87,2.62.07,2.35,1.41l-1.82,9.02c-.44.49-.87.98-1.27,1.51l-5.16,6.9-1.72,2.3c-5.26,1.41-9.5,5.55-10.93,10.88ZM123.05,71.91l-1.99,7.45c-.5,1.88-1.51,3.47-2.82,4.72-.44.41-.91.79-1.41,1.12l-2.25,8.39c-.18.69-.5,1.3-.91,1.83-1.23,1.58-3.33,2.36-5.39,1.81l-4.96-1.33c-2.74-.73-4.37-3.55-3.63-6.29l1.33-4.96-39.72-10.64-1.33,4.96c-.73,2.74-3.55,4.37-6.29,3.63l-4.96-1.33c-2.06-.55-3.49-2.27-3.76-4.26-.09-.66-.06-1.35.13-2.04l2.25-8.39c-.27-.54-.49-1.1-.66-1.68-.51-1.73-.59-3.62-.08-5.49l1.99-7.45c.85-3.18,3.11-5.59,5.92-6.78.95-.4,1.95-.65,2.97-.76l2.91-3.89,5.16-6.9c.55-.74,1.15-1.43,1.8-2.06,1.28-1.27,2.74-2.32,4.29-3.13.78-.41,1.59-.76,2.42-1.04,1.66-.57,3.4-.9,5.18-.97s3.58.13,5.37.61l19.7,5.28c1.79.48,3.45,1.21,4.95,2.16,2.25,1.41,4.15,3.3,5.57,5.54,1.42,2.23,2.35,4.79,2.68,7.55l1.02,8.56.58,4.83c1.67,1.2,2.94,2.88,3.65,4.81.71,1.91.85,4.05.28,6.17h0ZM61.65,52.8c-2.98-.8-5.49.65-6.29,3.62-.8,2.97.66,5.48,3.64,6.28,2.98.8,7.31,2.49,8.11-.48.8-2.97-2.48-8.62-5.46-9.42h0ZM108.33,57.33l-1.02-8.56c-.09-.78-.3-1.53-.61-2.23-.93-2.09-2.76-3.7-5.05-4.31l-19.7-5.28c-3.05-.82-6.28.3-8.17,2.83l-5.16,6.9,27.62,7.4,12.09,3.24ZM111.3,66.11c-2.98-.8-8.64,2.46-9.44,5.43-.8,2.97,3.8,3.67,6.78,4.47s5.49-.65,6.29-3.62c.8-2.97-.66-5.48-3.64-6.28Z"/>
    </g>

    <!-- Labels -->
    <text x="72" y="116" text-anchor="middle" dominant-baseline="central" fill="{{textColor}}" font-family="Arial, sans-serif" font-size="16">{{subLabel}}</text>
    <text x="72" y="138" text-anchor="middle" dominant-baseline="central" fill="{{textColor}}" font-family="Arial, sans-serif" font-size="20" font-weight="bold">{{mainLabel}}</text>
  </g>
</svg>
