<svg xmlns="http://www.w3.org/2000/svg" viewBox="0 0 72 72">
  <rect x="0" y="0" width="72" height="72" rx="8" fill="#3a2a2a"/>
  <g transform="translate(36, 22) rotate(-90) scale(0.088) translate(-256, -256)">
    <!-- Car body -->
    <path fill="#888888" d="M448.118,351.402h47.018v-75.629c-11.104,2.554-29.453,6.744-47.008,10.593L448.118,351.402z"/>
    <path fill="#888888" d="M495.136,160.599h-47.008v65.035c17.555,3.85,35.904,8.03,47.008,10.584V160.599z"/>
    <polygon fill="#888888" points="57.147,175.343 0.009,175.343 0,336.647 57.147,336.647"/>
    <path fill="#888888" d="M503.763,245.781c0,0-66.446-15.465-92.844-20.383c-26.399-4.899-91.51-16.42-91.51-16.42s-3.008-11.18-4.606-20.27c-2.771-15.672-16.59-31.335-51.624-31.335c-35.024,0-47.018,0-66.369,0c-50.697,0-42.374,48.852-73.067,48.852c-30.692,0-54.215,0-54.215,0v99.549c0,0,23.523,0,54.215,0c30.693,0,22.37,48.863,73.067,48.863c19.351,0,31.335,0,66.369,0s48.853-15.673,51.624-31.346c1.598-9.08,4.606-20.278,4.606-20.278s65.111-11.511,91.51-16.42c26.398-4.91,92.844-20.373,92.844-20.373c4.814-1.06,8.237-5.307,8.237-10.215C512,251.087,508.576,246.83,503.763,245.781z M295.895,280.275c-22.983,0-28.896-10.867-28.896-24.27c0-13.412,5.912-24.28,28.896-24.28c22.984,0,41.617,10.868,41.617,24.28C337.512,269.408,318.88,280.275,295.895,280.275z"/>
    <!-- Tires (all green = changing) -->
    <path fill="#44FF44" stroke="#888888" stroke-width="8" d="M346.451,158.291h68.507c5.779,0,10.451-4.682,10.451-10.452V119.88c0-5.77-4.672-10.442-10.451-10.442h-68.507c-5.77,0-10.452,4.672-10.452,10.442v27.959C335.999,153.609,340.681,158.291,346.451,158.291z"/>
    <path fill="#44FF44" stroke="#888888" stroke-width="8" d="M414.958,353.711h-68.507c-5.77,0-10.452,4.672-10.452,10.442v27.959c0,5.77,4.682,10.461,10.452,10.461h68.507c5.779,0,10.451-4.692,10.451-10.461v-27.959C425.409,358.383,420.737,353.711,414.958,353.711z"/>
    <path fill="#44FF44" stroke="#888888" stroke-width="8" d="M62.217,159.681h72.206c5.77,0,10.452-4.692,10.452-10.461v-35.328c0-5.779-4.682-10.451-10.452-10.451H62.217c-5.769,0-10.442,4.672-10.442,10.451v35.328C51.775,154.99,56.448,159.681,62.217,159.681z"/>
    <path fill="#44FF44" stroke="#888888" stroke-width="8" d="M134.422,352.329H62.217c-5.769,0-10.451,4.682-10.451,10.461v35.317c0,5.77,4.682,10.451,10.451,10.451h72.206c5.77,0,10.452-4.682,10.452-10.451v-35.317C144.874,357.011,140.192,352.329,134.422,352.329z"/>
  </g>
  <!-- Title text -->
  <text x="36" y="55" text-anchor="middle" font-family="Arial, sans-serif" font-size="12" font-weight="bold" fill="#ffffff">Tires</text>
  <text x="36" y="66" text-anchor="middle" font-family="Arial, sans-serif" font-size="10" fill="#ffffff">Change</text>
</svg>
