<svg xmlns="http://www.w3.org/2000/svg" viewBox="0 0 144 144">
  <desc>{"colors":{"backgroundColor":"#3a4a5a","textColor":"#ffffff","graphic1Color":"#f2f2f2"},"title":{"text":"REPORT\nLAPS"}}</desc>

    <g transform="translate(0, -8)">
      <path fill="#f2f2f2" d="M75.8,83.6h-7.57c-1.06,0-1.95.88-1.95,1.95s.88,1.95,1.95,1.95h7.57c1.06,0,1.95-.88,1.95-1.95s-.88-1.95-1.95-1.95Z"/>
      <path fill="#f2f2f2" d="M97.8,83.6h-7.57c-1.06,0-1.95.88-1.95,1.95s.88,1.95,1.95,1.95h7.57c1.09,0,1.95-.88,1.95-1.95s-.88-1.95-1.95-1.95Z"/>
      <path fill="#f2f2f2" d="M53.8,83.6h-7.57c-1.06,0-1.95.88-1.95,1.95s.88,1.95,1.95,1.95h7.57c1.06,0,1.95-.88,1.95-1.95s-.88-1.95-1.95-1.95Z"/>
      <path fill="#f2f2f2" d="M26.7,64.56v-8.82c0-1.06-.88-1.95-1.95-1.95s-1.95.88-1.95,1.95v8.82c0,1.06.88,1.95,1.95,1.95s1.95-.88,1.95-1.95Z"/>
      <path fill="#f2f2f2" d="M117.33,55.74v8.82c0,1.06.88,1.95,1.95,1.95s1.95-.88,1.95-1.95v-8.82c0-1.06-.88-1.95-1.95-1.95s-1.95.88-1.95,1.95Z"/>
      <path fill="#f2f2f2" d="M97.8,32.81h-7.57c-1.06,0-1.95.88-1.95,1.95s.88,1.95,1.95,1.95h7.57c1.09,0,1.95-.88,1.95-1.95s-.88-1.95-1.95-1.95Z"/>
      <path fill="#f2f2f2" d="M46.23,36.7h7.57c1.06,0,1.95-.88,1.95-1.95s-.88-1.95-1.95-1.95h-7.57c-1.06,0-1.95.88-1.95,1.95s.88,1.95,1.95,1.95Z"/>
      <path fill="#f2f2f2" d="M34.56,80.56c-2.93-1.87-4.77-3.76-5.84-5.91-.47-.99-1.63-1.37-2.59-.91-.99.47-1.37,1.63-.91,2.59,1.37,2.83,3.68,5.21,7.24,7.5.31.21.67.31,1.04.31.65,0,1.27-.31,1.66-.88.57-.91.31-2.13-.6-2.7Z"/>
      <path fill="#f2f2f2" d="M117.87,73.72c-.96-.47-2.13-.05-2.59.91-1.25,2.62-3.63,4.57-5.58,5.99-.86.65-1.04,1.87-.42,2.72.39.52.99.8,1.58.8.39,0,.8-.13,1.12-.42,2.31-1.69,5.16-4.05,6.8-7.42.47-.96.05-2.13-.91-2.59Z"/>
      <path fill="#f2f2f2" d="M26.05,46.17c.29.16.62.23.93.23h0c.67,0,1.32-.36,1.71-.99,1.27-2.28,3.48-4.41,5.73-5.58.93-.49,1.32-1.66.83-2.62-.49-.93-1.66-1.32-2.62-.83-2.96,1.5-5.71,4.18-7.34,7.13-.52.93-.18,2.13.75,2.65Z"/>
      <path fill="#f2f2f2" d="M115.33,45.39c.36.65,1.04,1.01,1.71,1.01.34,0,.65-.08.93-.23.93-.52,1.27-1.71.75-2.65-1.45-2.62-3.42-5.53-7.08-7.19-.96-.44-2.13-.03-2.57.96-.44.96-.03,2.13.96,2.57,2.62,1.19,4.07,3.35,5.29,5.53Z"/>
      <path fill="#f2f2f2" d="M100.88,22.93h-57.74c-17.2,0-31.18,14.32-31.18,31.93v10.95c0,8.51,3.24,16.47,9.1,22.41,5.86,5.91,13.7,9.18,22.05,9.18h57.77c8.35,0,16.19-3.27,22.05-9.18,5.89-5.94,9.1-13.88,9.1-22.41v-10.95c.03-17.61-13.96-31.93-31.15-31.93ZM73.96,26.82h6.77v5.99h-6.77v-5.99ZM95.38,46.58c6.02,0,11.13,5.08,11.13,11.1v5.29c0,5.94-4.98,10.76-11.13,10.76h-46.74c-6.12,0-11.13-4.82-11.13-10.76v-5.29c0-6.02,5.08-11.1,11.13-11.1h46.74ZM73.96,36.7h6.77v5.99h-6.77v-5.99ZM63.3,26.82h6.77v5.99h-6.77v-5.99ZM63.3,36.7h6.77v5.99h-6.77v-5.99ZM128.25,65.8h-.08c0,15.54-11.98,27.68-27.29,27.68h-57.74c-15.3,0-27.29-12.17-27.29-27.68v-10.95c0-15.46,12.24-28.04,27.29-28.04h16.26v15.87h-10.76c-3.99,0-7.76,1.58-10.61,4.46-2.83,2.85-4.38,6.59-4.38,10.53v5.29c0,8.07,6.74,14.66,15.02,14.66h46.77c8.27,0,15.02-6.56,15.02-14.66v-5.29c0-3.94-1.56-7.68-4.38-10.53-2.85-2.88-6.61-4.46-10.61-4.46h-10.76v-15.87h16.26c15.04,0,27.29,12.58,27.29,28.04v10.95Z"/>
    </g>

</svg>
