<svg xmlns="http://www.w3.org/2000/svg" viewBox="0 0 144 144">
  <desc>{"colors":{"backgroundColor":"#3a4a5a","textColor":"#ffffff","graphic1Color":"#ffffff","graphic2Color":"#ffd318"}}</desc>
  <g filter="url(#activity-state)">
    <rect x="0" y="0" width="144" height="144" fill="#3a4a5a"/>

    <!-- Icon content area: sun and cloud -->
    <g transform="translate(0, -8)">
      <!-- Sun rays and partial circle -->
      <path fill="#ffd318" d="M49.27,51.07c-2.79-1.33-5.16-3.41-6.84-6.01-1.73-2.68-2.64-5.79-2.64-8.99,0-4.64,1.91-8.83,4.99-11.85h0c3.04-2.99,7.04-4.66,11.29-4.74,0,0,0,0,0,0,.03,0,.05,0,.08,0,0,0,0,0,0,0,.01,0,.03,0,.04,0,.01,0,.02,0,.04,0,.01,0,.03,0,.04,0,0,0,0,0,.01,0h0s.02,0,.03,0c0,0,.02,0,.03,0,0,0,.01,0,.02,0,0,0,0,0,0,0,.02,0,.04,0,.06,0,0,0,0,0,.01,0,0,0,.02,0,.03,0,0,0,0,0,.01,0,.01,0,.03,0,.04,0,.01,0,.03,0,.04,0,.01,0,.02,0,.04,0,.01,0,.02,0,.04,0,0,0,0,0,0,0,.03,0,.05,0,.08,0,0,0,0,0,0,0,4.25.08,8.25,1.76,11.29,4.74h0c1,.98,1.88,2.09,2.61,3.3l-5.02,3.02c-.48-.8-1.05-1.51-1.69-2.14h0c-.43-.42-.89-.8-1.38-1.14h0c-1.52-1.06-3.27-1.7-5.11-1.87,0,0,0,0,0,0-.02,0-.03,0-.05,0,0,0,0,0,0,0,0,0-.02,0-.02,0,0,0,0,0,0,0,0,0-.01,0-.02,0,0,0,0,0,0,0,0,0-.01,0-.02,0,0,0,0,0,0,0,0,0-.01,0-.02,0,0,0,0,0,0,0,0,0,0,0-.01,0,0,0,0,0-.01,0,0,0,0,0-.01,0,0,0,0,0,0,0,0,0-.01,0-.02,0,0,0,0,0-.01,0,0,0,0,0-.01,0,0,0,0,0-.01,0,0,0-.01,0-.02,0,0,0,0,0-.01,0,0,0,0,0-.01,0,0,0,0,0-.01,0,0,0-.01,0-.02,0,0,0,0,0-.01,0h-.01s-.01,0-.02,0c0,0,0,0-.01,0,0,0,0,0-.01,0,0,0,0,0-.01,0,0,0-.01,0-.02,0,0,0,0,0-.01,0,0,0,0,0-.01,0,0,0-.01,0-.02,0,0,0,0,0,0,0,0,0,0,0-.01,0,0,0,0,0,0,0h-.02s0,0-.01,0c0,0,0,0-.01,0,0,0,0,0-.01,0,0,0-.01,0-.02,0,0,0,0,0-.01,0,0,0,0,0-.01,0h-.01s0,0-.01,0c0,0,0,0,0,0,0,0-.01,0-.02,0,0,0-.02,0-.02,0,0,0,0,0,0,0,0,0-.01,0-.02,0,0,0,0,0,0,0,0,0-.01,0-.02,0h-.02s-.02,0-.02,0c0,0-.02,0-.03,0,0,0,0,0,0,0,0,0-.02,0-.03,0,0,0-.02,0-.02,0,0,0-.02,0-.03,0,0,0-.02,0-.02,0,0,0-.02,0-.02,0,0,0-.01,0-.02,0,0,0-.02,0-.03,0,0,0,0,0,0,0-.02,0-.03,0-.05,0,0,0-.02,0-.03,0,0,0,0,0,0,0,0,0-.01,0-.02,0,0,0-.01,0-.02,0,0,0-.02,0-.03,0-5.87.07-10.62,4.86-10.62,10.74,0,4.13,2.41,7.94,6.14,9.71l-2.51,5.29Z"/>
      <path fill="#ffd318" d="M54.43,17.53c-1.62,0-2.93-1.31-2.93-2.93v-1.95c0-1.62,1.31-2.93,2.93-2.93s2.93,1.31,2.93,2.93v1.95c0,1.62-1.31,2.93-2.93,2.93Z"/>
      <path fill="#ffd318" d="M34.9,37.05h-1.95c-1.62,0-2.93-1.31-2.93-2.93s1.31-2.93,2.93-2.93h1.95c1.62,0,2.93,1.31,2.93,2.93s-1.31,2.93-2.93,2.93Z"/>
      <path fill="#ffd318" d="M68.77,22.71c-.75,0-1.5-.29-2.07-.86-1.14-1.14-1.14-3,0-4.14l.84-.84c1.14-1.14,3-1.14,4.14,0,1.14,1.14,1.14,3,0,4.14l-.84.84c-.57.57-1.32.86-2.07.86Z"/>
      <path fill="#ffd318" d="M39.24,52.24c-.75,0-1.5-.29-2.07-.86-1.14-1.14-1.14-3,0-4.14l.84-.84c1.14-1.14,3-1.14,4.14,0,1.14,1.14,1.14,3,0,4.14l-.84.84c-.57.57-1.32.86-2.07.86Z"/>
      <path fill="#ffd318" d="M40.09,22.71c-.75,0-1.5-.29-2.07-.86l-.84-.84c-1.14-1.14-1.14-3,0-4.14,1.14-1.14,3-1.14,4.14,0l.84.84c1.14,1.14,1.14,3,0,4.14-.57.57-1.32.86-2.07.86Z"/>
      <!-- Cloud -->
      <path fill="#ffffff" d="M88.74,93.67h-39.05c-10.84,0-19.66-8.73-19.66-19.47s8.46-19.1,18.99-19.46c-.26-1.45-.4-2.94-.4-4.43,0-6.68,2.63-12.96,7.41-17.68,4.77-4.71,11.1-7.3,17.84-7.3,6.24,0,12.24,2.27,16.87,6.4,4.15,3.7,6.93,8.61,7.94,13.99,9.22,3.91,15.3,12.92,15.3,22.97,0,6.68-2.63,12.96-7.41,17.68-4.77,4.71-11.1,7.3-17.84,7.3ZM49.69,60.59c-7.61,0-13.81,6.11-13.81,13.61s6.19,13.61,13.81,13.61h39.05c10.69,0,19.38-8.58,19.38-19.12,0-8.12-5.21-15.37-12.97-18.05-.04-.01-.08-.03-.12-.04-2.02-.68-4.14-1.03-6.3-1.03s-4.4.37-6.47,1.09c-1.53.53-3.2-.27-3.73-1.8-.53-1.53.27-3.2,1.8-3.73,2.69-.94,5.52-1.42,8.4-1.42,1.15,0,2.29.08,3.41.23-2.67-7.5-9.9-12.74-18.29-12.74-10.69,0-19.38,8.58-19.38,19.12,0,1.77.24,3.51.72,5.2,1.91.55,3.73,1.39,5.4,2.5,1.35.89,1.72,2.71.83,4.06-.89,1.35-2.71,1.72-4.06.83-1.51-1-3.18-1.68-4.95-2.03-.03,0-.06-.01-.09-.02-.86-.16-1.75-.25-2.64-.25Z"/>
    </g>

    <!-- Labels -->
    <text x="72" y="104" text-anchor="middle" dominant-baseline="central" fill="#ffffff" font-family="Arial, sans-serif" font-size="16">{{subLabel}}</text>
    <text x="72" y="126" text-anchor="middle" dominant-baseline="central" fill="#ffffff" font-family="Arial, sans-serif" font-size="20" font-weight="bold">{{mainLabel}}</text>
  </g>
</svg>
