<svg xmlns="http://www.w3.org/2000/svg" viewBox="0 0 144 144">
  <desc>{"colors":{"backgroundColor":"#3a2a2a","textColor":"#ffffff","graphic1Color":"#888888"},"locked":["graphic1Color"],"title":{"text":"TIRES"},"border":{"color":"#6a5a5a"}}</desc>

  <g transform="translate(72, 53) rotate(-90) scale(0.176) translate(-256, -256)">
    <!-- Right top panel -->
    <path fill="#888888" d="M448.118,351.402h47.018v-75.629c-11.104,2.554-29.453,6.744-47.008,10.593L448.118,351.402z"/>
    <!-- Right bottom panel -->
    <path fill="#888888" d="M495.136,160.599h-47.008v65.035c17.555,3.85,35.904,8.03,47.008,10.584V160.599z"/>
    <!-- Left side panel -->
    <polygon fill="#888888" points="57.147,175.343 0.009,175.343 0,336.647 57.147,336.647"/>
    <!-- Main body -->
    <path fill="#888888" d="M503.763,245.781c0,0-66.446-15.465-92.844-20.383c-26.399-4.899-91.51-16.42-91.51-16.42s-3.008-11.18-4.606-20.27c-2.771-15.672-16.59-31.335-51.624-31.335c-35.024,0-47.018,0-66.369,0c-50.697,0-42.374,48.852-73.067,48.852c-30.692,0-54.215,0-54.215,0v99.549c0,0,23.523,0,54.215,0c30.693,0,22.37,48.863,73.067,48.863c19.351,0,31.335,0,66.369,0s48.853-15.673,51.624-31.346c1.598-9.08,4.606-20.278,4.606-20.278s65.111-11.511,91.51-16.42c26.398-4.91,92.844-20.373,92.844-20.373c4.814-1.06,8.237-5.307,8.237-10.215C512,251.087,508.576,246.83,503.763,245.781z M295.895,280.275c-22.983,0-28.896-10.867-28.896-24.27c0-13.412,5.912-24.28,28.896-24.28c22.984,0,41.617,10.868,41.617,24.28C337.512,269.408,318.88,280.275,295.895,280.275z"/>
  </g>

</svg>
