<svg xmlns="http://www.w3.org/2000/svg" viewBox="0 0 144 144">
  <desc>{"colors":{"backgroundColor":"#2a3a4a","textColor":"#ffffff","graphic1Color":"#ffffff"},"title":{"text":"FRAME BACK"},"border":{"color":"#5a6a7a"},"artworkBounds":{"x":23,"y":23,"width":98,"height":58}}</desc>

    <rect x="24" y="24" width="96" height="56" rx="3" fill="none" stroke="#ffffff" stroke-width="3"/>

    <rect x="30" y="27" width="8" height="6" rx="1.5" fill="#ffffff"/>
    <rect x="44" y="27" width="8" height="6" rx="1.5" fill="#ffffff"/>
    <rect x="58" y="27" width="8" height="6" rx="1.5" fill="#ffffff"/>
    <rect x="78" y="27" width="8" height="6" rx="1.5" fill="#ffffff"/>
    <rect x="92" y="27" width="8" height="6" rx="1.5" fill="#ffffff"/>
    <rect x="106" y="27" width="8" height="6" rx="1.5" fill="#ffffff"/>

    <rect x="30" y="71" width="8" height="6" rx="1.5" fill="#ffffff"/>
    <rect x="44" y="71" width="8" height="6" rx="1.5" fill="#ffffff"/>
    <rect x="58" y="71" width="8" height="6" rx="1.5" fill="#ffffff"/>
    <rect x="78" y="71" width="8" height="6" rx="1.5" fill="#ffffff"/>
    <rect x="92" y="71" width="8" height="6" rx="1.5" fill="#ffffff"/>
    <rect x="106" y="71" width="8" height="6" rx="1.5" fill="#ffffff"/>

    <rect x="30" y="37" width="36" height="30" rx="4" fill="none" stroke="#ffffff" stroke-width="2"/>
    <rect x="78" y="37" width="36" height="30" rx="4" fill="none" stroke="#ffffff" stroke-width="2"/>

    <polygon points="56,46 40,52 56,58" fill="#ffffff"/>

</svg>
